# xmcd
#
# Track frame offsets:
# 150
# 19792
# 33696
# 50547
# 72773
# 87540
# 113732
# 128989
# 147364
# 163465
# 178545
# 203482
#
# Disc length: 3059 seconds
#
#
# Revision: 0
# Processed by: cddbd v1.5.2PL0 Copyright (c) Steve Scherf et al.
# Submitted via: Nero 7, 11, 10, 0 
#
DISCID=ad0bf10c
DTITLE=Dave Howard and The Highrollers - What It Is...Is This!
DYEAR=1900
DGENRE=Blues
TTITLE0=Long Deep Kiss
TTITLE1=Sorry Ain't Good Enough
TTITLE2=Snap Out Of That Dream World
TTITLE3=Diversion
TTITLE4=Gift Of Desperation
TTITLE5=Love In A One Horse Town
TTITLE6=King Of Sunday Street
TTITLE7=So What
TTITLE8=Lookin' Back
TTITLE9=Old, But I Ain't Dead
TTITLE10=Blues I Own
TTITLE11=Unfinished Business
EXTD=
EXTT0=Long Deep Kiss
EXTT1=Sorry Ain't Good Enough
EXTT2=Snap Out Of That Dream World
EXTT3=Diversion
EXTT4=Gift Of Desperation
EXTT5=Love In A One Horse Town
EXTT6=King Of Sunday Street
EXTT7=So What
EXTT8=Lookin' Back
EXTT9=Old, But I Ain't Dead
EXTT10=Blues I Own
EXTT11=Unfinished Business
PLAYORDER=
